<svg width="1200" height="900" viewBox="0 0 1200 900" fill="none" xmlns="http://www.w3.org/2000/svg">
  <defs>
    <linearGradient id="bg" x1="0" y1="0" x2="0" y2="1">
      <stop offset="0%" stop-color="#FFF9EC"/>
      <stop offset="100%" stop-color="#EFF6FF"/>
    </linearGradient>
    <linearGradient id="board" x1="0" y1="0" x2="1" y2="1">
      <stop offset="0%" stop-color="#1E3A8A"/>
      <stop offset="100%" stop-color="#0F172A"/>
    </linearGradient>
  </defs>
  <rect width="1200" height="900" fill="url(#bg)"/>
  <rect x="130" y="120" width="940" height="620" rx="36" fill="#FFFFFF" opacity="0.92" stroke="#E2E8F0"/>
  <rect x="180" y="190" width="280" height="30" rx="15" fill="#FDE68A"/>
  <rect x="540" y="190" width="380" height="30" rx="15" fill="#DBEAFE"/>
  <rect x="180" y="250" width="310" height="180" rx="24" fill="url(#board)"/>
  <path d="M220 290H450" stroke="#FDE68A" stroke-width="12" stroke-linecap="round"/>
  <path d="M220 330H410" stroke="#FFFFFF" stroke-width="10" stroke-linecap="round" opacity="0.85"/>
  <path d="M220 370H380" stroke="#93C5FD" stroke-width="10" stroke-linecap="round" opacity="0.9"/>
  <rect x="540" y="255" width="420" height="165" rx="24" fill="#F8FAFC" stroke="#E2E8F0"/>
  <rect x="570" y="285" width="120" height="20" rx="10" fill="#34D399"/>
  <rect x="710" y="285" width="220" height="20" rx="10" fill="#FCA5A5"/>
  <rect x="570" y="325" width="310" height="16" rx="8" fill="#CBD5E1"/>
  <rect x="570" y="355" width="260" height="16" rx="8" fill="#CBD5E1"/>
  <rect x="570" y="385" width="190" height="16" rx="8" fill="#CBD5E1"/>
  <rect x="190" y="470" width="820" height="220" rx="30" fill="#F8FAFC" stroke="#E2E8F0"/>
  <rect x="235" y="535" width="90" height="34" rx="17" fill="#BFDBFE"/>
  <rect x="345" y="535" width="110" height="34" rx="17" fill="#FDE68A"/>
  <rect x="475" y="535" width="120" height="34" rx="17" fill="#C7F9D0"/>
  <rect x="615" y="535" width="110" height="34" rx="17" fill="#E9D5FF"/>
  <rect x="745" y="535" width="150" height="34" rx="17" fill="#FECACA"/>
  <circle cx="290" cy="600" r="28" fill="#FFD7C2"/>
  <path d="M255 686C258 646 272 628 290 628C308 628 322 646 325 686V710H255V686Z" fill="#60A5FA"/>
  <circle cx="420" cy="595" r="28" fill="#F8D4BF"/>
  <path d="M386 684C389 644 403 626 420 626C438 626 451 644 454 684V710H386V684Z" fill="#F59E0B"/>
  <circle cx="560" cy="595" r="28" fill="#F7D6C4"/>
  <path d="M525 685C528 645 542 627 560 627C578 627 592 645 595 685V710H525V685Z" fill="#34D399"/>
  <circle cx="700" cy="598" r="28" fill="#FAD7C2"/>
  <path d="M665 686C668 646 682 628 700 628C718 628 732 646 735 686V710H665V686Z" fill="#A78BFA"/>
  <circle cx="840" cy="594" r="28" fill="#F8D3C0"/>
  <path d="M805 684C808 644 822 626 840 626C858 626 872 644 875 684V710H805V684Z" fill="#F472B6"/>
  <rect x="250" y="715" width="700" height="16" rx="8" fill="#0F172A" opacity="0.12"/>
  <circle cx="1000" cy="170" r="60" fill="#FDE68A" opacity="0.7"/>
</svg>