<svg width="1200" height="900" viewBox="0 0 1200 900" fill="none" xmlns="http://www.w3.org/2000/svg">
  <defs>
    <linearGradient id="room" x1="0" y1="0" x2="0" y2="1">
      <stop offset="0%" stop-color="#FFFBEB"/>
      <stop offset="100%" stop-color="#EFF6FF"/>
    </linearGradient>
  </defs>
  <rect width="1200" height="900" fill="url(#room)"/>
  <rect x="120" y="120" width="960" height="640" rx="40" fill="#FFFFFF" opacity="0.94" stroke="#E2E8F0"/>
  <rect x="180" y="180" width="220" height="18" rx="9" fill="#FDE68A"/>
  <rect x="180" y="220" width="420" height="170" rx="24" fill="#F8FAFC" stroke="#E2E8F0"/>
  <rect x="220" y="250" width="150" height="18" rx="9" fill="#60A5FA"/>
  <rect x="220" y="284" width="220" height="14" rx="7" fill="#CBD5E1"/>
  <rect x="220" y="312" width="190" height="14" rx="7" fill="#CBD5E1"/>
  <rect x="650" y="180" width="320" height="18" rx="9" fill="#34D399"/>
  <rect x="650" y="220" width="320" height="170" rx="24" fill="#F8FAFC" stroke="#E2E8F0"/>
  <path d="M690 260H930" stroke="#0F172A" stroke-width="12" stroke-linecap="round" opacity="0.5"/>
  <path d="M690 300H890" stroke="#94A3B8" stroke-width="10" stroke-linecap="round" opacity="0.8"/>
  <path d="M690 340H860" stroke="#94A3B8" stroke-width="10" stroke-linecap="round" opacity="0.8"/>
  <rect x="160" y="450" width="880" height="220" rx="32" fill="#F8FAFC" stroke="#E2E8F0"/>
  <circle cx="320" cy="545" r="30" fill="#FAD7C2"/>
  <path d="M284 632C287 590 301 572 320 572C339 572 353 590 356 632V674H284V632Z" fill="#F472B6"/>
  <circle cx="490" cy="545" r="30" fill="#F8D5C0"/>
  <path d="M454 632C457 590 471 572 490 572C509 572 523 590 526 632V674H454V632Z" fill="#34D399"/>
  <circle cx="665" cy="545" r="30" fill="#F8D5C0"/>
  <path d="M629 632C632 590 646 572 665 572C684 572 698 590 701 632V674H629V632Z" fill="#60A5FA"/>
  <circle cx="835" cy="545" r="30" fill="#FAD7C2"/>
  <path d="M799 632C802 590 816 572 835 572C854 572 868 590 871 632V674H799V632Z" fill="#A78BFA"/>
  <path d="M360 570C416 528 488 515 565 515C642 515 724 538 804 583" stroke="#F59E0B" stroke-width="16" stroke-linecap="round" opacity="0.7"/>
  <path d="M160 715H1040" stroke="#0F172A" stroke-width="16" stroke-linecap="round" opacity="0.12"/>
  <rect x="250" y="740" width="700" height="16" rx="8" fill="#0F172A" opacity="0.1"/>
</svg>