<svg width="1200" height="900" viewBox="0 0 1200 900" fill="none" xmlns="http://www.w3.org/2000/svg">
  <defs>
    <linearGradient id="bg" x1="0" y1="0" x2="0" y2="1">
      <stop offset="0%" stop-color="#F8FAFC"/>
      <stop offset="100%" stop-color="#EEF2FF"/>
    </linearGradient>
  </defs>
  <rect width="1200" height="900" fill="url(#bg)"/>
  <rect x="140" y="140" width="920" height="620" rx="40" fill="#FFFFFF" opacity="0.95" stroke="#E2E8F0"/>
  <ellipse cx="600" cy="612" rx="330" ry="68" fill="#0F172A" opacity="0.06"/>
  <circle cx="370" cy="438" r="42" fill="#FAD7C2"/>
  <path d="M314 564C320 512 339 486 370 486C401 486 420 512 426 564V660H314V564Z" fill="#F472B6"/>
  <circle cx="580" cy="412" r="42" fill="#F8D5C0"/>
  <path d="M524 540C530 488 549 462 580 462C611 462 630 488 636 540V660H524V540Z" fill="#34D399"/>
  <circle cx="815" cy="438" r="42" fill="#F7D5C4"/>
  <path d="M759 564C765 512 784 486 815 486C846 486 865 512 871 564V660H759V564Z" fill="#60A5FA"/>
  <path d="M332 520H408" stroke="#0F172A" stroke-width="14" stroke-linecap="round" opacity="0.5"/>
  <path d="M551 498H649" stroke="#0F172A" stroke-width="14" stroke-linecap="round" opacity="0.5"/>
  <path d="M794 520H876" stroke="#0F172A" stroke-width="14" stroke-linecap="round" opacity="0.5"/>
  <path d="M439 486C488 450 535 432 598 432C658 432 713 452 760 492" stroke="#8B5CF6" stroke-width="18" stroke-linecap="round" opacity="0.75"/>
  <rect x="220" y="700" width="760" height="18" rx="9" fill="#0F172A" opacity="0.1"/>
  <circle cx="280" cy="220" r="8" fill="#FDE68A"/>
  <circle cx="310" cy="250" r="5" fill="#FDE68A"/>
  <circle cx="900" cy="240" r="8" fill="#93C5FD"/>
  <circle cx="940" cy="270" r="5" fill="#93C5FD"/>
</svg>