<svg width="240" height="240" viewBox="0 0 240 240" fill="none" xmlns="http://www.w3.org/2000/svg">
  <rect width="240" height="240" rx="48" fill="url(#bg)"/>
  <rect x="22" y="22" width="196" height="196" rx="40" stroke="url(#frame)" stroke-width="2"/>
  <circle cx="120" cy="120" r="78" fill="url(#medallion)"/>
  <circle cx="120" cy="120" r="77" stroke="url(#ring)" stroke-opacity="0.72" stroke-width="2"/>
  <circle cx="120" cy="108" r="56" fill="url(#halo)" opacity="0.85"/>

  <g>
    <ellipse cx="120" cy="170" rx="44" ry="12" fill="#2F2438" opacity="0.18"/>

    <g transform="translate(76 36)">
      <path d="M77 52C84 51 89 54 92 60C88 62 84 64 80 67" stroke="#F6C760" stroke-width="4.5" stroke-linecap="round" stroke-linejoin="round"/>
      <path d="M57 31C45 24 35 25 27 34C20 42 18 53 21 64C28 58 35 55 42 54C45 46 50 38 57 31Z" fill="url(#wingLeft)"/>
      <path d="M61 34C54 39 49 46 47 54C44 66 47 77 56 87C60 76 66 68 74 62C76 52 72 42 61 34Z" fill="#FFF8EE"/>
      <path d="M66 30C76 27 85 30 91 39C96 46 98 54 97 62C90 59 83 58 77 59C75 50 71 40 66 30Z" fill="url(#wingRight)"/>
      <path d="M49 90C58 82 67 76 76 72C78 80 76 87 71 94C67 100 61 104 54 106C50 101 48 96 49 90Z" fill="#FFF3E2"/>
      <path d="M57 31C63 35 69 42 73 51" stroke="#E0AE4A" stroke-width="3" stroke-linecap="round" opacity="0.85"/>
      <circle cx="76" cy="56" r="2.6" fill="#5A442C"/>
      <path d="M79 67C86 70 91 75 94 83" stroke="#F6C760" stroke-width="3.5" stroke-linecap="round"/>
      <path d="M78 68C87 71 93 76 98 84" stroke="#FFF1D4" stroke-width="1.8" stroke-linecap="round" opacity="0.85"/>
    </g>

    <g transform="translate(78 94)">
      <path d="M40 14C40 9.58172 43.5817 6 48 6C52.4183 6 56 9.58172 56 14" stroke="url(#goldStroke)" stroke-width="4" stroke-linecap="round"/>
      <path d="M48 6V0" stroke="url(#goldStroke)" stroke-width="3.2" stroke-linecap="round"/>
      <circle cx="48" cy="46" r="41" fill="url(#globeFill)"/>
      <circle cx="48" cy="46" r="40" stroke="url(#ring)" stroke-width="2.2"/>
      <ellipse cx="48" cy="46" rx="18" ry="40" stroke="#FFF5DD" stroke-opacity="0.68" stroke-width="1.8"/>
      <ellipse cx="48" cy="46" rx="32" ry="40" stroke="#FFF5DD" stroke-opacity="0.34" stroke-width="1.4"/>
      <path d="M8 46H88" stroke="#FFF5DD" stroke-opacity="0.52" stroke-width="1.8"/>
      <path d="M15 28C24 32 33 34 48 34C63 34 72 32 81 28" stroke="#FFF5DD" stroke-opacity="0.44" stroke-width="1.6" stroke-linecap="round"/>
      <path d="M15 64C24 60 33 58 48 58C63 58 72 60 81 64" stroke="#FFF5DD" stroke-opacity="0.44" stroke-width="1.6" stroke-linecap="round"/>
      <path d="M31 29C24 33 20 39 20 46C20 53 24 59 31 63C35 58 35 51 39 47C42 44 45 41 43 36C39 35 35 32 31 29Z" fill="#F2E4C8" fill-opacity="0.92"/>
      <path d="M49 32C56 34 62 39 64 45C66 50 64 56 58 61C56 56 54 52 50 49C46 45 45 39 49 32Z" fill="#FFF8EE" fill-opacity="0.94"/>
      <path d="M58 63C63 60 68 59 73 60C71 66 66 71 58 75C53 73 51 69 58 63Z" fill="#EBC56B" fill-opacity="0.92"/>
    </g>
  </g>

  <defs>
    <linearGradient id="bg" x1="20" y1="18" x2="212" y2="224" gradientUnits="userSpaceOnUse">
      <stop stop-color="#5C472F"/>
      <stop offset="0.54" stop-color="#8E6F46"/>
      <stop offset="1" stop-color="#B89058"/>
    </linearGradient>
    <linearGradient id="frame" x1="30" y1="26" x2="208" y2="214" gradientUnits="userSpaceOnUse">
      <stop stop-color="#FFF3D2" stop-opacity="0.75"/>
      <stop offset="1" stop-color="#D8B066" stop-opacity="0.62"/>
    </linearGradient>
    <radialGradient id="medallion" cx="0" cy="0" r="1" gradientUnits="userSpaceOnUse" gradientTransform="translate(120 120) rotate(90) scale(78)">
      <stop stop-color="#8A6B44" stop-opacity="0.94"/>
      <stop offset="1" stop-color="#6B5234" stop-opacity="0.82"/>
    </radialGradient>
    <linearGradient id="ring" x1="52" y1="50" x2="188" y2="190" gradientUnits="userSpaceOnUse">
      <stop stop-color="#FFF0CA"/>
      <stop offset="0.56" stop-color="#F1CF78"/>
      <stop offset="1" stop-color="#C9962F"/>
    </linearGradient>
    <radialGradient id="halo" cx="0" cy="0" r="1" gradientUnits="userSpaceOnUse" gradientTransform="translate(120 108) rotate(90) scale(56)">
      <stop stop-color="#F4D57D" stop-opacity="0.28"/>
      <stop offset="1" stop-color="#F4D57D" stop-opacity="0"/>
    </radialGradient>
    <linearGradient id="goldStroke" x1="26" y1="20" x2="78" y2="146" gradientUnits="userSpaceOnUse">
      <stop stop-color="#FFF2C9"/>
      <stop offset="0.36" stop-color="#F4D57D"/>
      <stop offset="0.72" stop-color="#D7A947"/>
      <stop offset="1" stop-color="#BD8928"/>
    </linearGradient>
    <linearGradient id="wingLeft" x1="21" y1="27" x2="58" y2="69" gradientUnits="userSpaceOnUse">
      <stop stop-color="#FFF4D9"/>
      <stop offset="1" stop-color="#E5B95E"/>
    </linearGradient>
    <linearGradient id="wingRight" x1="64" y1="28" x2="98" y2="63" gradientUnits="userSpaceOnUse">
      <stop stop-color="#FFF9EC"/>
      <stop offset="1" stop-color="#DDA94C"/>
    </linearGradient>
    <radialGradient id="globeFill" cx="0" cy="0" r="1" gradientUnits="userSpaceOnUse" gradientTransform="translate(48 46) rotate(90) scale(41)">
      <stop stop-color="#8D6D46" stop-opacity="0.94"/>
      <stop offset="1" stop-color="#634A2E" stop-opacity="0.96"/>
    </radialGradient>
  </defs>
</svg>
