<svg width="1200" height="800" viewBox="0 0 1200 800" fill="none" xmlns="http://www.w3.org/2000/svg">
  <rect width="1200" height="800" rx="48" fill="url(#bg)"/>
  <rect x="66" y="84" width="1068" height="632" rx="40" fill="url(#panel)" stroke="rgba(255,255,255,0.14)"/>
  <circle cx="930" cy="192" r="138" fill="url(#halo)"/>
  <path d="M96 638C203 534.667 322 483 453 483C609 483 736 558 853 558C943.667 558 1027 520 1103 444" stroke="#F4E9FF" stroke-opacity="0.28" stroke-width="8" stroke-linecap="round"/>
  <rect x="140" y="152" width="324" height="470" rx="34" fill="rgba(255,255,255,0.06)" stroke="rgba(255,255,255,0.16)"/>
  <rect x="526" y="166" width="488" height="274" rx="34" fill="rgba(255,255,255,0.05)" stroke="rgba(255,255,255,0.12)"/>
  <rect x="526" y="474" width="328" height="126" rx="28" fill="rgba(255,255,255,0.05)" stroke="rgba(255,255,255,0.12)"/>
  <g transform="translate(188 198)">
    <rect x="0" y="0" width="228" height="160" rx="26" fill="rgba(255,255,255,0.04)"/>
    <path d="M114 34V126" stroke="#F7D895" stroke-width="18" stroke-linecap="round"/>
    <path d="M62 72H166" stroke="#F7D895" stroke-width="18" stroke-linecap="round"/>
    <path d="M32 122C66 92.667 105.333 78 150 78C178.667 78 204 83.333 226 94" stroke="#E8DAFF" stroke-opacity="0.35" stroke-width="8" stroke-linecap="round"/>
  </g>
  <path d="M564 230H936" stroke="#F4E9FF" stroke-width="18" stroke-linecap="round"/>
  <path d="M564 304H996" stroke="#F4E9FF" stroke-opacity="0.4" stroke-width="14" stroke-linecap="round"/>
  <path d="M564 374H946" stroke="#F4E9FF" stroke-opacity="0.32" stroke-width="14" stroke-linecap="round"/>
  <path d="M564 512H782" stroke="#F7D895" stroke-width="14" stroke-linecap="round"/>
  <path d="M564 558H812" stroke="#F4E9FF" stroke-opacity="0.36" stroke-width="12" stroke-linecap="round"/>
  <circle cx="936" cy="534" r="52" fill="rgba(247,216,149,0.14)"/>
  <path d="M902 538L925 561L972 513" stroke="#F7D895" stroke-width="12" stroke-linecap="round" stroke-linejoin="round"/>
  <defs>
    <linearGradient id="bg" x1="62" y1="22" x2="1122" y2="770" gradientUnits="userSpaceOnUse">
      <stop stop-color="#1B1033"/>
      <stop offset="0.55" stop-color="#45217F"/>
      <stop offset="1" stop-color="#140A28"/>
    </linearGradient>
    <linearGradient id="panel" x1="104" y1="120" x2="1081" y2="681" gradientUnits="userSpaceOnUse">
      <stop stop-color="#20113B"/>
      <stop offset="1" stop-color="#140D25"/>
    </linearGradient>
    <radialGradient id="halo" cx="0" cy="0" r="1" gradientUnits="userSpaceOnUse" gradientTransform="translate(930 192) rotate(90) scale(138)">
      <stop stop-color="#F7D895" stop-opacity="0.28"/>
      <stop offset="1" stop-color="#F7D895" stop-opacity="0"/>
    </radialGradient>
  </defs>
</svg>
